<svg xmlns="http://www.w3.org/2000/svg" width="30.15" height="30.15" viewBox="36.85 15 30.15 30.15"><g data-name="Icon"><path d="M47.25 30.903a3.75 3.75 0 1 1 0 .094z" stroke-linejoin="round" stroke-linecap="round" stroke-width=".46875" stroke="#78c6bd" fill="transparent" data-name="Ellipse 12"/><g data-name="Group 3"><path d="M39.51 15.85h10.64v13.3h0-13.3 0V18.51a2.66 2.66 0 0 1 2.66-2.66z" stroke-linejoin="round" stroke-linecap="round" stroke-width="1.507339" stroke="#457b9d" fill="transparent" data-name="Rectangle 81"/><path d="M36.85 31.85h13.3v13.3h0-13.3 0v-13.3h0z" stroke-linejoin="round" stroke-linecap="round" stroke-width="1.507339" stroke="#78c6bd" fill="transparent" data-name="Rectangle 77"/><path d="M59.5 15a7.5 7.5 0 0 1 7.5 7.5 7.5 7.5 0 0 1-7.5 7.5 7.5 7.5 0 0 1-7.5-7.5 7.5 7.5 0 0 1 7.5-7.5z" fill="#78c6bd" fill-rule="evenodd" data-name="Rectangle 79"/><path d="M52.85 31.85h13.3v10.64a2.66 2.66 0 0 1-2.66 2.66H52.85h0v-13.3h0z" stroke-linejoin="round" stroke-linecap="round" stroke-width="1.507339" stroke="#78c6bd" fill="transparent" data-name="Rectangle 78"/></g></g></svg>